<svg width="13" height="13" viewBox="0 0 13 13" fill="none" xmlns="http://www.w3.org/2000/svg">
<path d="M5.46152 1.53676C5.71368 0.760697 6.8116 0.760698 7.06375 1.53676L7.96469 4.30957C8.07746 4.65664 8.40088 4.89162 8.76581 4.89162H11.6813C12.4973 4.89162 12.8366 5.93579 12.1764 6.41542L9.81774 8.12912C9.52251 8.34362 9.39897 8.72382 9.51174 9.07089L10.4127 11.8437C10.6648 12.6198 9.77661 13.2651 9.11645 12.7855L6.75775 11.0718C6.46252 10.8573 6.06275 10.8573 5.76752 11.0718L3.40882 12.7855C2.74867 13.2651 1.86044 12.6198 2.11259 11.8437L3.01354 9.07089C3.1263 8.72382 3.00277 8.34362 2.70754 8.12912L0.34884 6.41542C-0.311314 5.93579 0.0279604 4.89162 0.843956 4.89162H3.75947C4.12439 4.89162 4.44781 4.65664 4.56058 4.30957L5.46152 1.53676Z" fill="#FFC107"/>
</svg>
